<svg width="20" height="20" viewBox="0 0 20 20" fill="none" xmlns="http://www.w3.org/2000/svg">
<path d="M4.99935 15.8333C4.99935 16.75 5.74935 17.5 6.66602 17.5H13.3327C14.2494 17.5 14.9994 16.75 14.9994 15.8333V7.5C14.9994 6.58333 14.2494 5.83333 13.3327 5.83333H6.66602C5.74935 5.83333 4.99935 6.58333 4.99935 7.5V15.8333ZM7.49935 7.5H12.4993C12.9577 7.5 13.3327 7.875 13.3327 8.33333V15C13.3327 15.4583 12.9577 15.8333 12.4993 15.8333H7.49935C7.04102 15.8333 6.66602 15.4583 6.66602 15V8.33333C6.66602 7.875 7.04102 7.5 7.49935 7.5ZM12.916 3.33333L12.3244 2.74167C12.1743 2.59167 11.9577 2.5 11.741 2.5H8.25768C8.04102 2.5 7.82435 2.59167 7.67435 2.74167L7.08268 3.33333H4.99935C4.54102 3.33333 4.16602 3.70833 4.16602 4.16667C4.16602 4.625 4.54102 5 4.99935 5H14.9994C15.4577 5 15.8327 4.625 15.8327 4.16667C15.8327 3.70833 15.4577 3.33333 14.9994 3.33333H12.916Z" fill="black" fill-opacity="0.54"/>
</svg>
