<svg width="35" height="29" viewBox="0 0 35 29" fill="none" xmlns="http://www.w3.org/2000/svg">
<path d="M5.6713 0.805664H1.13426C0.508148 0.805664 0 1.31381 0 1.93992V6.47696C0 7.10307 0.508148 7.61122 1.13426 7.61122C1.76037 7.61122 2.26852 7.10307 2.26852 6.47696V3.07418H5.6713C6.29741 3.07418 6.80556 2.56603 6.80556 1.93992C6.80556 1.31381 6.29741 0.805664 5.6713 0.805664Z" fill="#7FC600"/>
<path d="M33.8656 22.1943C33.2395 22.1943 32.7314 22.7025 32.7314 23.3286V26.7314H29.3286C28.7025 26.7314 28.1943 27.2395 28.1943 27.8656C28.1943 28.4917 28.7025 28.9999 29.3286 28.9999H33.8656C34.4917 28.9999 34.9999 28.4917 34.9999 27.8656V23.3286C34.9999 22.7025 34.4917 22.1943 33.8656 22.1943Z" fill="#7FC600"/>
<path d="M33.8656 0.805664H29.3286C28.7025 0.805664 28.1943 1.31381 28.1943 1.93992C28.1943 2.56603 28.7025 3.07418 29.3286 3.07418H32.7314V6.47696C32.7314 7.10307 33.2395 7.61122 33.8656 7.61122C34.4917 7.61122 34.9999 7.10307 34.9999 6.47696V1.93992C34.9999 1.31381 34.4917 0.805664 33.8656 0.805664Z" fill="#7FC600"/>
<path d="M5.6713 26.7314H2.26852V23.3286C2.26852 22.7025 1.76037 22.1943 1.13426 22.1943C0.508148 22.1943 0 22.7025 0 23.3286V27.8656C0 28.4917 0.508148 28.9999 1.13426 28.9999H5.6713C6.29741 28.9999 6.80556 28.4917 6.80556 27.8656C6.80556 27.2395 6.29741 26.7314 5.6713 26.7314Z" fill="#7FC600"/>
<rect x="3.88867" y="6.63867" width="2.91667" height="18.4722" fill="#7FC600"/>
<rect x="9.72266" y="6.63867" width="2.91667" height="14.5833" fill="#7FC600"/>
<path d="M13.6113 6.63867H16.528V21.222H13.6113V6.63867Z" fill="#7FC600"/>
<path d="M18.4727 6.63867H21.3893V25.1109H18.4727V6.63867Z" fill="#7FC600"/>
<path d="M23.333 6.63867H26.2497V21.222H23.333V6.63867Z" fill="#7FC600"/>
<path d="M28.1943 6.63867H31.111V25.1109H28.1943V6.63867Z" fill="#7FC600"/>
<rect x="9.72266" y="22.1943" width="2.91667" height="2.91667" fill="#7FC600"/>
<path d="M13.6113 22.1943H16.528V25.111H13.6113V22.1943Z" fill="#7FC600"/>
<path d="M23.333 22.1943H26.2497V25.111H23.333V22.1943Z" fill="#7FC600"/>
</svg>
