<svg width="32" height="32" viewBox="0 0 32 32" fill="none" xmlns="http://www.w3.org/2000/svg">
<path d="M29.3335 12H22.9468L17.1068 3.25336C16.8535 2.88003 16.4268 2.69336 16.0002 2.69336C15.5735 2.69336 15.1468 2.88003 14.8935 3.26669L9.0535 12H2.66683C1.9335 12 1.3335 12.6 1.3335 13.3334C1.3335 13.4534 1.34683 13.5734 1.38683 13.6934L4.7735 26.0534C5.08016 27.1734 6.10683 28 7.3335 28H24.6668C25.8935 28 26.9202 27.1734 27.2402 26.0534L30.6268 13.6934L30.6668 13.3334C30.6668 12.6 30.0668 12 29.3335 12ZM16.0002 6.40003L19.7335 12H12.2668L16.0002 6.40003ZM24.6668 25.3334L7.34683 25.3467L4.4135 14.6667H27.6002L24.6668 25.3334ZM16.0002 17.3334C14.5335 17.3334 13.3335 18.5334 13.3335 20C13.3335 21.4667 14.5335 22.6667 16.0002 22.6667C17.4668 22.6667 18.6668 21.4667 18.6668 20C18.6668 18.5334 17.4668 17.3334 16.0002 17.3334Z" fill="#469B5C"/>
</svg>
