<svg width="18" height="18" viewBox="0 0 18 18" fill="none" xmlns="http://www.w3.org/2000/svg">
<path d="M8.99199 0.666504C4.39199 0.666504 0.666992 4.39984 0.666992 8.99984C0.666992 13.5998 4.39199 17.3332 8.99199 17.3332C13.6003 17.3332 17.3337 13.5998 17.3337 8.99984C17.3337 4.39984 13.6003 0.666504 8.99199 0.666504ZM9.00033 15.6665C5.31699 15.6665 2.33366 12.6832 2.33366 8.99984C2.33366 5.3165 5.31699 2.33317 9.00033 2.33317C12.6837 2.33317 15.667 5.3165 15.667 8.99984C15.667 12.6832 12.6837 15.6665 9.00033 15.6665ZM8.81699 4.83317H8.76699C8.43366 4.83317 8.16699 5.09984 8.16699 5.43317V9.3665C8.16699 9.65817 8.31699 9.93317 8.57533 10.0832L12.0337 12.1582C12.317 12.3248 12.6837 12.2415 12.8503 11.9582C13.0253 11.6748 12.9337 11.2998 12.642 11.1332L9.41699 9.2165V5.43317C9.41699 5.09984 9.15033 4.83317 8.81699 4.83317Z" fill="black" fill-opacity="0.54"/>
</svg>
