<svg width="20" height="20" viewBox="0 0 20 20" fill="none" xmlns="http://www.w3.org/2000/svg">
<path d="M7.50817 11.6664H2.49984C2.0415 11.6664 1.6665 12.0414 1.6665 12.4998C1.6665 12.9581 2.0415 13.3331 2.49984 13.3331H7.50817V14.8248C7.50817 15.1998 7.95817 15.3831 8.2165 15.1164L10.5332 12.7914C10.6915 12.6248 10.6915 12.3664 10.5332 12.1998L8.2165 9.87478C7.95817 9.60811 7.50817 9.79978 7.50817 10.1664V11.6664ZM12.4915 9.82478V8.33311H17.4998C17.9582 8.33311 18.3332 7.95811 18.3332 7.49978C18.3332 7.04145 17.9582 6.66645 17.4998 6.66645H12.4915V5.17478C12.4915 4.79978 12.0415 4.61645 11.7832 4.88311L9.4665 7.20811C9.30817 7.37478 9.30817 7.63311 9.4665 7.79978L11.7832 10.1248C12.0415 10.3831 12.4915 10.1998 12.4915 9.82478Z" fill="#469B5C"/>
</svg>
