<svg width="20" height="20" viewBox="0 0 20 20" fill="none" xmlns="http://www.w3.org/2000/svg">
<path d="M10.5418 8.33333C9.85849 6.39167 8.0085 5 5.8335 5C3.07516 5 0.833496 7.24167 0.833496 10C0.833496 12.7583 3.07516 15 5.8335 15C8.0085 15 9.85849 13.6083 10.5418 11.6667H14.1668V15H17.5002V11.6667H19.1668V8.33333H10.5418ZM5.8335 11.6667C4.91683 11.6667 4.16683 10.9167 4.16683 10C4.16683 9.08333 4.91683 8.33333 5.8335 8.33333C6.75016 8.33333 7.50016 9.08333 7.50016 10C7.50016 10.9167 6.75016 11.6667 5.8335 11.6667Z" fill="black" fill-opacity="0.54"/>
</svg>
