<svg width="15" height="15" viewBox="0 0 15 15" fill="none" xmlns="http://www.w3.org/2000/svg">
<path d="M13.5127 4.89641C12.4275 2.60614 10.1457 1.12163 7.61213 1.05769C5.07859 0.993747 2.72474 2.36125 1.52542 4.59387L0 3.98116L1.07542 7.06505L4.10085 5.61844L2.72288 5.06675C3.73242 3.31034 5.63315 2.2591 7.65751 2.33756C9.68186 2.41601 11.4955 3.6112 12.3661 5.44048C12.5249 5.7428 12.8941 5.86566 13.2023 5.71872C13.5106 5.57178 13.6476 5.20755 13.5127 4.89387V4.89641Z" fill="#469B5C"/>
<path d="M14.8221 11.3108L13.2967 8.42017L10.5229 10.2964L12.0738 10.6625C11.0401 12.324 9.19536 13.3043 7.23989 13.2313C5.28442 13.1583 3.51798 12.0431 2.61106 10.3091C2.44818 9.99814 2.06402 9.87805 1.75301 10.0409C1.442 10.2038 1.32191 10.588 1.48479 10.899C2.6381 13.103 4.91433 14.49 7.40186 14.5044C9.88939 14.5188 12.1815 13.1582 13.3602 10.9676L14.8221 11.3108Z" fill="#469B5C"/>
</svg>
