<svg width="16" height="16" viewBox="0 0 16 16" fill="none" xmlns="http://www.w3.org/2000/svg">
<path d="M12.9532 8.65337C12.9799 8.44004 12.9999 8.22671 12.9999 8.00004C12.9999 7.77337 12.9799 7.56004 12.9532 7.34671L14.3599 6.24671C14.4866 6.14671 14.5199 5.96671 14.4399 5.82004L13.1066 3.51337C13.0466 3.40671 12.9332 3.34671 12.8132 3.34671C12.7732 3.34671 12.7332 3.35337 12.6999 3.36671L11.0399 4.03337C10.6932 3.76671 10.3199 3.54671 9.91323 3.38004L9.65989 1.61337C9.63989 1.45337 9.49989 1.33337 9.33323 1.33337H6.66656C6.49989 1.33337 6.35989 1.45337 6.33989 1.61337L6.08656 3.38004C5.67989 3.54671 5.30656 3.77337 4.95989 4.03337L3.29989 3.36671C3.25989 3.35337 3.21989 3.34671 3.17989 3.34671C3.06656 3.34671 2.95323 3.40671 2.89323 3.51337L1.55989 5.82004C1.47323 5.96671 1.51323 6.14671 1.63989 6.24671L3.04656 7.34671C3.01989 7.56004 2.99989 7.78004 2.99989 8.00004C2.99989 8.22004 3.01989 8.44004 3.04656 8.65337L1.63989 9.75337C1.51323 9.85337 1.47989 10.0334 1.55989 10.18L2.89323 12.4867C2.95323 12.5934 3.06656 12.6534 3.18656 12.6534C3.22656 12.6534 3.26656 12.6467 3.29989 12.6334L4.95989 11.9667C5.30656 12.2334 5.67989 12.4534 6.08656 12.62L6.33989 14.3867C6.35989 14.5467 6.49989 14.6667 6.66656 14.6667H9.33323C9.49989 14.6667 9.63989 14.5467 9.65989 14.3867L9.91323 12.62C10.3199 12.4534 10.6932 12.2267 11.0399 11.9667L12.6999 12.6334C12.7399 12.6467 12.7799 12.6534 12.8199 12.6534C12.9332 12.6534 13.0466 12.5934 13.1066 12.4867L14.4399 10.18C14.5199 10.0334 14.4866 9.85337 14.3599 9.75337L12.9532 8.65337ZM11.6332 7.51337C11.6599 7.72004 11.6666 7.86004 11.6666 8.00004C11.6666 8.14004 11.6532 8.28671 11.6332 8.48671L11.5399 9.24004L12.1332 9.70671L12.8532 10.2667L12.3866 11.0734L11.5399 10.7334L10.8466 10.4534L10.2466 10.9067C9.95989 11.12 9.68656 11.28 9.41323 11.3934L8.70656 11.68L8.59989 12.4334L8.46656 13.3334H7.53323L7.40656 12.4334L7.29989 11.68L6.59323 11.3934C6.30656 11.2734 6.03989 11.12 5.77323 10.92L5.16656 10.4534L4.45989 10.74L3.61323 11.08L3.14656 10.2734L3.86656 9.71337L4.45989 9.24671L4.36656 8.49337C4.34656 8.28671 4.33323 8.13337 4.33323 8.00004C4.33323 7.86671 4.34656 7.71337 4.36656 7.51337L4.45989 6.76004L3.86656 6.29337L3.14656 5.73337L3.61323 4.92671L4.45989 5.26671L5.15323 5.54671L5.75323 5.09337C6.03989 4.88004 6.31323 4.72004 6.58656 4.60671L7.29323 4.32004L7.39989 3.56671L7.53323 2.66671H8.45989L8.58656 3.56671L8.69323 4.32004L9.39989 4.60671C9.68656 4.72671 9.95323 4.88004 10.2199 5.08004L10.8266 5.54671L11.5332 5.26004L12.3799 4.92004L12.8466 5.72671L12.1332 6.29337L11.5399 6.76004L11.6332 7.51337ZM7.99989 5.33337C6.52656 5.33337 5.33323 6.52671 5.33323 8.00004C5.33323 9.47337 6.52656 10.6667 7.99989 10.6667C9.47323 10.6667 10.6666 9.47337 10.6666 8.00004C10.6666 6.52671 9.47323 5.33337 7.99989 5.33337ZM7.99989 9.33337C7.26656 9.33337 6.66656 8.73337 6.66656 8.00004C6.66656 7.26671 7.26656 6.66671 7.99989 6.66671C8.73323 6.66671 9.33323 7.26671 9.33323 8.00004C9.33323 8.73337 8.73323 9.33337 7.99989 9.33337Z" fill="#469B5C"/>
</svg>
